<?xml version="1.0" encoding="utf-8"?>
<!-- Generator: Adobe Illustrator 16.0.0, SVG Export Plug-In . SVG Version: 6.00 Build 0)  -->
<!DOCTYPE svg PUBLIC "-//W3C//DTD SVG 1.1//EN" "http://www.w3.org/Graphics/SVG/1.1/DTD/svg11.dtd">
<svg version="1.1" xmlns="http://www.w3.org/2000/svg" xmlns:xlink="http://www.w3.org/1999/xlink" x="0px" y="0px" width="17px"
	 height="17px" viewBox="0 0 17 17" enable-background="new 0 0 17 17" xml:space="preserve">
<g id="Ebene_1" display="none">
	<rect fill="#cccccc" display="inline" width="3" height="1"/>
	<rect fill="#cccccc" display="inline" width="1" height="3"/>
	<rect fill="#cccccc" y="10" display="inline" width="1" height="3"/>
	<rect fill="#cccccc" y="12" display="inline" width="3" height="1"/>
	<rect fill="#cccccc" x="12" display="inline" width="1" height="3"/>
	<rect fill="#cccccc" x="10" display="inline" width="3" height="1"/>
	<rect fill="#cccccc" y="5" display="inline" width="1" height="3"/>
	<rect fill="#cccccc" x="12" y="5" display="inline" width="1" height="3"/>
	<rect fill="#cccccc" x="5" display="inline" width="3" height="1"/>
	<rect fill="#cccccc" x="5" y="12" display="inline" width="3" height="1"/>
</g>
<g id="Ebene_2">
	<rect fill="#cccccc" x="9" y="6" width="1" height="1"/>
	<rect fill="#cccccc" x="10" y="7" width="1" height="1"/>
	<rect fill="#cccccc" x="11" y="8" width="1" height="1"/>
	<rect fill="#cccccc" x="12" y="9" width="1" height="1"/>
	<rect fill="#cccccc" x="11" y="15" width="1" height="1"/>
	<rect fill="#cccccc" x="10" y="13" width="1" height="1"/>
	<rect fill="#cccccc" x="10" y="12" width="1" height="1"/>
	<rect fill="#cccccc" x="10" y="11" width="1" height="1"/>
	<rect fill="#cccccc" x="11" y="11" width="1" height="1"/>
	<rect fill="#cccccc" x="12" y="11" width="1" height="1"/>
	<rect fill="#cccccc" x="13" y="11" width="1" height="1"/>
	<rect fill="#cccccc" x="14" y="11" width="1" height="1"/>
	<rect fill="#cccccc" x="8" y="15" width="1" height="1"/>
	<rect fill="#cccccc" x="8" y="14" width="1" height="1"/>
	<rect fill="#cccccc" x="6" y="13" width="1" height="1"/>
	<rect fill="#cccccc" x="7" y="13" width="1" height="1"/>
	<rect fill="#cccccc" x="7" y="12" width="1" height="1"/>
	<rect fill="#cccccc" x="5" y="14" width="1" height="1"/>
	<rect fill="#cccccc" x="13" y="10" width="1" height="1"/>
	<rect fill="#cccccc" x="4" y="1" width="1" height="1"/>
	<rect fill="#cccccc" x="3" width="1" height="1"/>
	<rect fill="#cccccc" x="5" y="2" width="1" height="1"/>
	<rect fill="#cccccc" x="6" y="3" width="1" height="1"/>
	<rect fill="#cccccc" x="7" y="4" width="1" height="1"/>
	<rect fill="#cccccc" x="8" y="5" width="1" height="1"/>
	<rect fill="#cccccc" x="3" y="1" width="1" height="16"/>
	<rect fill="#cccccc" x="4" y="15" width="1" height="1"/>
	<rect fill="#cccccc" x="11" y="14" width="1" height="1"/>
	<rect fill="#cccccc" x="10" y="16" width="1" height="1"/>
	<rect fill="#cccccc" x="9" y="16" width="1" height="1"/>
</g>
<g id="Ebene_3" display="none">
	<rect fill="#cccccc" x="9" y="9" display="inline" width="1" height="6"/>
	<rect fill="#cccccc" x="9" y="15" display="inline" width="1" height="1"/>
	<rect fill="#cccccc" x="10" y="9" display="inline" width="1" height="1"/>
	<rect fill="#cccccc" x="9" y="8" display="inline" width="1" height="1"/>
	<rect fill="#cccccc" x="11" y="10" display="inline" width="1" height="1"/>
	<rect fill="#cccccc" x="12" y="11" display="inline" width="1" height="1"/>
	<rect fill="#cccccc" x="10" y="15" display="inline" width="1" height="1"/>
	<rect fill="#cccccc" x="11" y="14" display="inline" width="1" height="1"/>
	<rect fill="#cccccc" x="12" y="14" display="inline" width="1" height="1"/>
	<rect fill="#cccccc" x="9" y="16" display="inline" width="1" height="1"/>
	<rect fill="#cccccc" x="13" y="12" display="inline" width="1" height="1"/>
	<rect fill="#cccccc" x="14" y="13" display="inline" width="1" height="1"/>
	<rect fill="#cccccc" x="13" y="14" display="inline" width="1" height="1"/>
	<rect fill="#cccccc" x="-1" y="14" display="inline" width="1" height="6"/>
	<rect fill="#cccccc" y="15" display="inline" width="1" height="1"/>
	<rect fill="#cccccc" x="1" y="16" display="inline" width="1" height="1"/>
	<rect fill="#cccccc" x="2" y="17" display="inline" width="1" height="1"/>
	<rect fill="#cccccc" x="1" y="18" display="inline" width="1" height="1"/>
	<rect fill="#cccccc" x="2" y="18" display="inline" width="1" height="1"/>
	<rect fill="#cccccc" y="19" display="inline" width="1" height="1"/>
	<rect fill="#cccccc" x="1" y="19" display="inline" width="1" height="1"/>
	<rect fill="#cccccc" x="-1" y="20" display="inline" width="1" height="1"/>
	<rect fill="#cccccc" x="2" y="20" display="inline" width="1" height="1"/>
	<rect fill="#cccccc" x="3" y="21" display="inline" width="1" height="1"/>
	<rect fill="#cccccc" x="3" y="18" display="inline" width="1" height="1"/>
</g>
</svg>
