<?xml version="1.0" encoding="utf-8"?>
<!-- Generator: Adobe Illustrator 16.0.0, SVG Export Plug-In . SVG Version: 6.00 Build 0)  -->
<!DOCTYPE svg PUBLIC "-//W3C//DTD SVG 1.1//EN" "http://www.w3.org/Graphics/SVG/1.1/DTD/svg11.dtd">
<svg version="1.1" id="Ebene_1" xmlns="http://www.w3.org/2000/svg" xmlns:xlink="http://www.w3.org/1999/xlink" x="0px" y="0px"
	 width="17px" height="17px" viewBox="0 0 17 17" enable-background="new 0 0 17 17" xml:space="preserve">
<path fill="#EFEFEF" d="M16.604,15.868l-5.172-5.173C12.406,9.559,13,8.084,13,6.472c0-3.584-2.916-6.5-6.5-6.5
	c-1.736,0-3.369,0.676-4.598,1.903C0.675,3.103-0.001,4.736,0,6.472c0,3.584,2.916,6.5,6.5,6.5c1.612,0,3.087-0.595,4.225-1.57
	l5.172,5.174L16.604,15.868z M6.5,11.973c-3.032,0-5.5-2.468-5.5-5.5c-0.001-1.47,0.571-2.851,1.61-3.889
	C3.648,1.544,5.03,0.972,6.5,0.972c3.032,0,5.5,2.467,5.5,5.5C12,9.504,9.532,11.973,6.5,11.973z"/>
</svg>
