<?xml version="1.0" encoding="utf-8"?>
<!-- Generator: Adobe Illustrator 24.0.1, SVG Export Plug-In . SVG Version: 6.00 Build 0)  -->
<svg version="1.1" id="Ebene_1" xmlns="http://www.w3.org/2000/svg" xmlns:xlink="http://www.w3.org/1999/xlink" x="0px" y="0px"
	 viewBox="0 0 17 17" style="enable-background:new 0 0 17 17;" xml:space="preserve">
<style type="text/css">
	.st0{fill:#ffffff;}
</style>
<polygon class="st0" points="5,16 5,17 0,17 0,12 1,12 1,16 "/>
<polygon class="st0" points="17,0 17,5 16,5 16,1 12,1 12,0 "/>
<polygon class="st0" points="5,0 5,1 1,1 1,5 0,5 0,0 "/>
<rect y="7" class="st0" width="1" height="3"/>
<rect x="7" class="st0" width="3" height="1"/>
<path fill="#ffffff" d="M13.2,10.6c-0.4,0-0.8,0.1-1.2,0.3L10.2,9l4.9-5.2l-0.6-0.5L9.7,8.4L4.8,3.3L4.2,3.8L9.1,9l-1.8,1.9
	c-0.3-0.2-0.7-0.3-1.2-0.3c-1.3,0-2.3,1.1-2.3,2.3s1.1,2.3,2.3,2.3s2.3-1.1,2.3-2.3c0-0.6-0.2-1.1-0.6-1.5l1.8-1.8l1.8,1.8
	c-0.4,0.4-0.6,0.9-0.6,1.5c0,1.3,1.1,2.3,2.3,2.3s2.3-1.1,2.3-2.3S14.5,10.6,13.2,10.6z M6.1,14.5c-0.9,0-1.6-0.7-1.6-1.6
	c0-0.9,0.7-1.6,1.6-1.6s1.6,0.7,1.6,1.6C7.7,13.8,7,14.5,6.1,14.5z M13.2,14.5c-0.9,0-1.6-0.7-1.6-1.6c0-0.9,0.7-1.6,1.6-1.6
	c0.9,0,1.6,0.7,1.6,1.6C14.7,13.8,14,14.5,13.2,14.5z"/>
</svg>
