<?xml version="1.0" standalone="no"?>
<!DOCTYPE svg PUBLIC "-//W3C//DTD SVG 20010904//EN"
 "http://www.w3.org/TR/2001/REC-SVG-20010904/DTD/svg10.dtd">
<svg version="1.0" xmlns="http://www.w3.org/2000/svg"
 width="512.000000pt" height="512.000000pt" viewBox="0 0 512.000000 512.000000"
 preserveAspectRatio="xMidYMid meet">
<metadata>
Created by potrace 1.11, written by Peter Selinger 2001-2013
</metadata>
<g transform="translate(0.000000,512.000000) scale(0.100000,-0.100000)"
fill="#000000" stroke="none">
<path d="M2348 4029 c-659 -64 -1280 -459 -1628 -1034 -148 -244 -259 -561
-295 -837 l-6 -48 -210 0 -209 0 0 -235 0 -235 440 0 440 0 0 138 c0 351 51
588 185 857 86 171 175 295 315 435 247 247 557 410 896 471 156 28 413 31
561 6 368 -62 661 -213 924 -476 201 -202 326 -399 409 -650 68 -203 81 -287
87 -548 l6 -233 428 0 429 0 0 235 0 235 -197 0 -198 0 -22 133 c-68 413 -272
819 -566 1125 -470 487 -1116 726 -1789 661z"/>
<path d="M2392 2570 c-248 -65 -434 -246 -514 -500 -19 -63 -23 -95 -22 -205
1 -149 21 -229 89 -352 58 -104 189 -229 295 -282 129 -63 230 -85 365 -79
392 18 686 325 688 718 0 130 -18 204 -80 330 -88 179 -263 320 -459 370 -102
26 -261 26 -362 0z"/>
</g>
</svg>
