<?xml version="1.0" encoding="UTF-8" standalone="no"?>
<svg xmlns="http://www.w3.org/2000/svg" viewBox="0 0 850.6 187.73">
	<defs>
		<style>
			.cls-2{fill:#111a12}
		</style>
	</defs>
	<circle cx="322.45" cy="59.75" r="19.97" style="fill:#ba345a"/>
	<path d="M.83 96.22h11.94l.06.07v79.37h39.69l.06.06v11.94l-.06.06H.83l-.06-.06V96.29Z" class="cls-2"/>
	<path d="M120.92 96.22h.19q18.12 0 31.81 14.19 12.14 13.88 12.13 31.56 0 19.38-14.31 33.82-13.32 11.93-29.63 11.93T91.61 176q-5.81-6-7.5-9.25A46.26 46.26 0 0 1 77.05 142v-.25q0-19.38 14.5-33.88l4.19-3.44a42.81 42.81 0 0 1 25.18-8.21Zm-31.87 45.69q0 14.82 11.25 25.69a31 31 0 0 0 20.81 8q15 0 25.31-13.25a34.65 34.65 0 0 0 6.5-19.88v-.81a34.43 34.43 0 0 0-8.92-23.12q-10-10.32-22.88-10.32-14.43 0-24.75 12.32a35.2 35.2 0 0 0-7.32 21.37Z" class="cls-2"/>
	<path d="M237.39 96.22h.19q17.43 0 30.75 13.13a47.13 47.13 0 0 1 7.18 9.56l.69 1.38q-9.06 4.74-10.75 5.5a30.6 30.6 0 0 0-4.69-6.82 29.48 29.48 0 0 0-5.81-5.12 30.17 30.17 0 0 0-17.37-5.63q-14.45 0-24.75 12.32a35.14 35.14 0 0 0-7.32 21.37q0 14.82 11.25 25.69a31 31 0 0 0 20.82 8q13.24 0 23.18-10.63a34.44 34.44 0 0 0 7.63-14.56h-23l-.13-.19v-11.68l.07-.07v-.12l24.93-.06h11.32l.18.18q-.43 9.57-1.18 12.57a45.44 45.44 0 0 1-6.32 16 43.45 43.45 0 0 1-36.81 20.68q-16.12 0-29.31-11.62-14.62-14.44-14.63-34.1v-.25q0-19.38 14.5-33.88a44.3 44.3 0 0 1 4.38-3.5 41.83 41.83 0 0 1 25-8.15Z" class="cls-2"/>
	<path d="M316.48 96.22h11.94l.06.07v91.37l-.06.06h-11.94l-.06-.06V96.29Z" class="cls-2"/>
	<path d="M405.94 96.22h.19q17.43 0 30.75 13.13a47.21 47.21 0 0 1 7.19 9.56l.68 1.38q-9.06 4.74-10.75 5.5a30.86 30.86 0 0 0-4.68-6.82 29.46 29.46 0 0 0-5.82-5.12 30.14 30.14 0 0 0-17.37-5.63q-14.44 0-24.75 12.32a35.13 35.13 0 0 0-7.31 21.37q0 14.82 11.25 25.69a31 31 0 0 0 20.81 8q13.25 0 23.19-10.63a34.53 34.53 0 0 0 7.62-14.56h-23l-.12-.19v-11.68l.06-.07v-.12l24.94-.06h11.31l.19.18q-.45 9.57-1.19 12.57a45.63 45.63 0 0 1-6.31 16A43.47 43.47 0 0 1 406 187.72q-16.12 0-29.31-11.62-14.62-14.44-14.62-34.1v-.25q0-19.38 14.5-33.88a44.73 44.73 0 0 1 4.37-3.5 41.85 41.85 0 0 1 25-8.15Z" class="cls-2"/>
	<path d="M524.84 96.22q.2 0 5.44 13.44l31.75 78-.12.06h-13.07c-.16 0-.77-1.39-1.81-4.18L540.72 168h-43.44l-7.94 19.68h-12.93v-.06L508 109.6l5.5-13.38Zm-22.56 59.69h33.5l-16.69-41.25q-.18 0-6.87 16.88Z" class="cls-2"/>
	<path d="M581.87 96.22h60.63l.06.07v11.93l-.06.07h-24.25v79.37l-.07.06h-12l-.06-.06v-79.37h-24.25l-.06-.07V96.29Z" class="cls-2"/>
	<path d="M710.71 96.22h.19q18.12 0 31.81 14.19 12.12 13.88 12.13 31.56 0 19.38-14.32 33.82-13.31 11.93-29.62 11.93T681.4 176q-5.82-6-7.5-9.25a46.26 46.26 0 0 1-7.06-24.75v-.25q0-19.38 14.5-33.88l4.18-3.44a42.84 42.84 0 0 1 25.19-8.21Zm-31.87 45.69q0 14.82 11.25 25.69a31 31 0 0 0 20.81 8q15 0 25.31-13.25a34.72 34.72 0 0 0 6.5-19.88v-.81a34.39 34.39 0 0 0-8.94-23.12q-10-10.32-22.87-10.32-14.45 0-24.75 12.32a35.13 35.13 0 0 0-7.31 21.37Z" class="cls-2"/>
	<path d="M788.55 96.22h30.12a32.4 32.4 0 0 1 24.63 10.88 29.65 29.65 0 0 1 7.19 19.25q0 12.87-10.32 22.25-5.55 4.5-9.75 5.75 0 .32 12.25 21.19l7 12-.12.12h-14.19q-.24 0-3.44-6-13.24-23.25-14.18-25.19h-17.38v31.07l-.12.18h-11.69l-.19-.18V96.41Zm11.81 12.19v35.94h18.88q9 0 15.5-7.44a17.24 17.24 0 0 0 3.62-10.19v-.81q0-8.19-7.87-14.06-4.87-3.63-13.57-3.63h-16.37Z" class="cls-2"/>
	<path d="M850.6 53.25v13h-84.81l-30.58-30.58L701.93 69l-33.28-33.33L635.38 69 602.1 35.66 568.82 69l-33.28-33.33L502.27 69 469 35.66l-30.6 30.59h-70.58v-6.5a46.75 46.75 0 1 0-93.49 0v6.5H39.94v-6.5a13.47 13.47 0 0 0-26.94 0v6.5H0v-6.5a26.47 26.47 0 0 1 52.13-6.5h209.55a59.75 59.75 0 0 1 118.79 0H433l36-36 33.28 33.28 33.27-33.28 33.28 33.28 33.27-33.25 33.28 33.28 33.27-33.28 33.28 33.28 33.28-33.28 36 36Z" class="cls-2"/>
</svg>
