<?xml version="1.0" encoding="iso-8859-1"?>
<!-- Generator: Adobe Illustrator 18.0.0, SVG Export Plug-In . SVG Version: 6.00 Build 0)  -->
<!DOCTYPE svg PUBLIC "-//W3C//DTD SVG 1.1//EN" "http://www.w3.org/Graphics/SVG/1.1/DTD/svg11.dtd">
<svg version="1.1" id="Capa_1" xmlns="http://www.w3.org/2000/svg" xmlns:xlink="http://www.w3.org/1999/xlink" x="0px" y="0px"
	 viewBox="0 0 186 186" style="enable-background:new 0 0 186 186;" xml:space="preserve">
<path d="M186,24.333C186,10.894,175.106,0,161.667,0H24.333C10.894,0,0,10.894,0,24.333v137.333C0,175.106,10.894,186,24.333,186
	h137.333C175.106,186,186,175.106,186,161.667V24.333z M92.5,43.142c13.111,0,23.74,10.629,23.74,23.74
	c0,13.112-10.629,23.74-23.74,23.74s-23.74-10.629-23.74-23.74C68.76,53.771,79.389,43.142,92.5,43.142z M130.949,153H55.717
	c-7.173,0-12.988-5.888-12.988-13.061c0-20.497,12.636-38.106,30.539-45.345c5.457,3.795,12.083,6.025,19.233,6.025
	c7.412,0,14.261-2.396,19.827-6.448c18.469,6.962,31.61,24.863,31.61,45.768C143.938,147.112,138.123,153,130.949,153z"/>
<g>
</g>
<g>
</g>
<g>
</g>
<g>
</g>
<g>
</g>
<g>
</g>
<g>
</g>
<g>
</g>
<g>
</g>
<g>
</g>
<g>
</g>
<g>
</g>
<g>
</g>
<g>
</g>
<g>
</g>
</svg>
