<?xml version="1.0" encoding="UTF-8" standalone="no"?>
<svg
   xmlns:dc="http://purl.org/dc/elements/1.1/"
   xmlns:cc="http://creativecommons.org/ns#"
   xmlns:rdf="http://www.w3.org/1999/02/22-rdf-syntax-ns#"
   xmlns:svg="http://www.w3.org/2000/svg"
   xmlns="http://www.w3.org/2000/svg"
   xmlns:sodipodi="http://sodipodi.sourceforge.net/DTD/sodipodi-0.dtd"
   xmlns:inkscape="http://www.inkscape.org/namespaces/inkscape"
   id="Layer_1"
   data-name="Layer 1"
   viewBox="0 0 850.6 187.73"
   version="1.1"
   sodipodi:docname="logo.svg"
   inkscape:version="0.92.3 (2405546, 2018-03-11)">
  <metadata
     id="metadata879">
    <rdf:RDF>
      <cc:Work
         rdf:about="">
        <dc:format>image/svg+xml</dc:format>
        <dc:type
           rdf:resource="http://purl.org/dc/dcmitype/StillImage" />
        <dc:title>logo</dc:title>
      </cc:Work>
    </rdf:RDF>
  </metadata>
  <sodipodi:namedview
     pagecolor="#ffffff"
     bordercolor="#666666"
     borderopacity="1"
     objecttolerance="10"
     gridtolerance="10"
     guidetolerance="10"
     inkscape:pageopacity="0"
     inkscape:pageshadow="2"
     inkscape:window-width="2560"
     inkscape:window-height="1377"
     id="namedview877"
     showgrid="false"
     inkscape:pagecheckerboard="true"
     inkscape:zoom="2.4276982"
     inkscape:cx="425.29999"
     inkscape:cy="93.864998"
     inkscape:window-x="1912"
     inkscape:window-y="-8"
     inkscape:window-maximized="1"
     inkscape:current-layer="Layer_1" />
  <defs
     id="defs850">
    <style
       id="style848">.cls-1{fill:#ba345a;}.cls-2{fill:#cccccc;}</style>
  </defs>
  <title
     id="title852">logo</title>
  <circle
     class="cls-1"
     cx="322.45"
     cy="59.75"
     r="19.97"
     id="circle854" />
  <path
     class="cls-2"
     d="M.83,96.22H12.77l.06.07v79.37H52.52l.06.06v11.94l-.06.06H.83l-.06-.06V96.29Z"
     transform="translate(0 0)"
     id="path856" />
  <path
     class="cls-2"
     d="M120.92,96.22h.19q18.12,0,31.81,14.19,12.14,13.88,12.13,31.56,0,19.38-14.31,33.82-13.32,11.93-29.63,11.93T91.61,176q-5.81-6-7.5-9.25A46.26,46.26,0,0,1,77.05,142v-.25q0-19.38,14.5-33.88l4.19-3.44A42.81,42.81,0,0,1,120.92,96.22ZM89.05,141.91q0,14.82,11.25,25.69a31,31,0,0,0,20.81,8q15,0,25.31-13.25a34.65,34.65,0,0,0,6.5-19.88v-.81A34.43,34.43,0,0,0,144,118.54q-10-10.32-22.88-10.32-14.43,0-24.75,12.32A35.2,35.2,0,0,0,89.05,141.91Z"
     transform="translate(0 0)"
     id="path858" />
  <path
     class="cls-2"
     d="M237.39,96.22h.19q17.43,0,30.75,13.13a47.13,47.13,0,0,1,7.18,9.56l.69,1.38q-9.06,4.74-10.75,5.5a30.6,30.6,0,0,0-4.69-6.82,29.48,29.48,0,0,0-5.81-5.12,30.17,30.17,0,0,0-17.37-5.63q-14.45,0-24.75,12.32a35.14,35.14,0,0,0-7.32,21.37q0,14.82,11.25,25.69a31,31,0,0,0,20.82,8q13.24,0,23.18-10.63a34.44,34.44,0,0,0,7.63-14.56h-23l-.13-.19V138.54l.07-.07v-.12l24.93-.06h11.32l.18.18q-.43,9.57-1.18,12.57a45.44,45.44,0,0,1-6.32,16,43.45,43.45,0,0,1-36.81,20.68q-16.12,0-29.31-11.62Q193.52,161.66,193.51,142v-.25q0-19.38,14.5-33.88a44.3,44.3,0,0,1,4.38-3.5A41.83,41.83,0,0,1,237.39,96.22Z"
     transform="translate(0 0)"
     id="path860" />
  <path
     class="cls-2"
     d="M316.48,96.22h11.94l.06.07v91.37l-.06.06H316.48l-.06-.06V96.29Z"
     transform="translate(0 0)"
     id="path862" />
  <path
     class="cls-2"
     d="M405.94,96.22h.19q17.43,0,30.75,13.13a47.21,47.21,0,0,1,7.19,9.56l.68,1.38q-9.06,4.74-10.75,5.5a30.86,30.86,0,0,0-4.68-6.82,29.46,29.46,0,0,0-5.82-5.12,30.14,30.14,0,0,0-17.37-5.63q-14.44,0-24.75,12.32a35.13,35.13,0,0,0-7.31,21.37q0,14.82,11.25,25.69a31,31,0,0,0,20.81,8q13.25,0,23.19-10.63a34.53,34.53,0,0,0,7.62-14.56h-23l-.12-.19V138.54l.06-.07v-.12l24.94-.06h11.31l.19.18q-.45,9.57-1.19,12.57a45.63,45.63,0,0,1-6.31,16A43.47,43.47,0,0,1,406,187.72q-16.12,0-29.31-11.62Q362.07,161.66,362.07,142v-.25q0-19.38,14.5-33.88a44.73,44.73,0,0,1,4.37-3.5A41.85,41.85,0,0,1,405.94,96.22Z"
     transform="translate(0 0)"
     id="path864" />
  <path
     class="cls-2"
     d="M524.84,96.22q.2,0,5.44,13.44l31.75,78-.12.06H548.84c-.16,0-.77-1.39-1.81-4.18L540.72,168H497.28l-7.94,19.68H476.41v-.06L508,109.6l5.5-13.38Zm-22.56,59.69h33.5l-16.69-41.25q-.18,0-6.87,16.88Z"
     transform="translate(0 0)"
     id="path866" />
  <path
     class="cls-2"
     d="M581.87,96.22H642.5l.06.07v11.93l-.06.07H618.25v79.37l-.07.06h-12l-.06-.06V108.29H581.87l-.06-.07V96.29Z"
     transform="translate(0 0)"
     id="path868" />
  <path
     class="cls-2"
     d="M710.71,96.22h.19q18.12,0,31.81,14.19,12.12,13.88,12.13,31.56,0,19.38-14.32,33.82-13.31,11.93-29.62,11.93T681.4,176q-5.82-6-7.5-9.25A46.26,46.26,0,0,1,666.84,142v-.25q0-19.38,14.5-33.88l4.18-3.44A42.84,42.84,0,0,1,710.71,96.22Zm-31.87,45.69q0,14.82,11.25,25.69a31,31,0,0,0,20.81,8q15,0,25.31-13.25a34.72,34.72,0,0,0,6.5-19.88v-.81a34.39,34.39,0,0,0-8.94-23.12q-10-10.32-22.87-10.32-14.45,0-24.75,12.32A35.13,35.13,0,0,0,678.84,141.91Z"
     transform="translate(0 0)"
     id="path870" />
  <path
     class="cls-2"
     d="M788.55,96.22h30.12A32.4,32.4,0,0,1,843.3,107.1a29.65,29.65,0,0,1,7.19,19.25q0,12.87-10.32,22.25-5.55,4.5-9.75,5.75,0,.32,12.25,21.19l7,12-.12.12H835.36q-.24,0-3.44-6-13.24-23.25-14.18-25.19H800.36v31.07l-.12.18H788.55l-.19-.18V96.41Zm11.81,12.19v35.94h18.88q9,0,15.5-7.44a17.24,17.24,0,0,0,3.62-10.19v-.81q0-8.19-7.87-14.06-4.87-3.63-13.57-3.63H800.55Z"
     transform="translate(0 0)"
     id="path872" />
  <path
     class="cls-2"
     d="M850.6,53.25v13H765.79L735.21,35.67,701.93,69,668.65,35.67,635.38,69,602.1,35.66,568.82,69,535.54,35.67,502.27,69,469,35.66,438.4,66.25H367.82v-6.5a46.75,46.75,0,1,0-93.49,0v6.5H39.94v-6.5a13.47,13.47,0,0,0-26.94,0v6.5H0v-6.5a26.47,26.47,0,0,1,52.13-6.5H261.68a59.75,59.75,0,0,1,118.79,0H433l36-36,33.28,33.28,33.27-33.28,33.28,33.28L602.1,17.28l33.28,33.28,33.27-33.28,33.28,33.28,33.28-33.28,36,36Z"
     transform="translate(0 0)"
     id="path874" />
</svg>
