<?xml version="1.0" encoding="utf-8"?>
<!-- Generator: Adobe Illustrator 16.0.0, SVG Export Plug-In . SVG Version: 6.00 Build 0)  -->
<!DOCTYPE svg PUBLIC "-//W3C//DTD SVG 1.1//EN" "http://www.w3.org/Graphics/SVG/1.1/DTD/svg11.dtd">
<svg version="1.1" id="Livello_1" xmlns="http://www.w3.org/2000/svg" xmlns:xlink="http://www.w3.org/1999/xlink" x="0px" y="0px"
	 width="15.685px" height="16px" viewBox="0.156 0 15.685 16" enable-background="new 0.156 0 15.685 16" xml:space="preserve">
<path d="M15.84,8.18c0,2.44-0.869,4.5-2.38,5.89C12.13,15.29,10.31,16,8.16,16c-3.03,0-5.79-1.71-7.149-4.41
	c-1.141-2.26-1.141-4.92,0-7.18C2.37,1.71,5.13,0,8.16,0c1.979-0.02,3.898,0.72,5.351,2.08l-2.28,2.29C10.4,3.58,9.3,3.15,8.16,3.17
	c-2.091,0-3.86,1.4-4.49,3.3c-0.34,0.99-0.34,2.07,0,3.059c0.63,1.9,2.399,3.301,4.49,3.301c1.079,0,2.01-0.271,2.72-0.76
	c0.841-0.563,1.42-1.44,1.602-2.432H8.16V6.56h7.54C15.8,7.09,15.84,7.64,15.84,8.18z"/>
</svg>
