<?xml version="1.0" encoding="utf-8"?>
<!-- Generator: Adobe Illustrator 24.0.1, SVG Export Plug-In . SVG Version: 6.00 Build 0)  -->
<svg version="1.1" id="Ebene_1" xmlns="http://www.w3.org/2000/svg" xmlns:xlink="http://www.w3.org/1999/xlink" x="0px" y="0px"
	 viewBox="0 0 17 17" style="enable-background:new 0 0 17 17;" xml:space="preserve">
<style type="text/css">
	.st0{stroke:#000000;stroke-miterlimit:10;}
</style>
<g>
	<path d="M8.6,4.4c3.9,0,7,3.1,7,7c0,1.7-0.6,3.3-1.7,4.5H3.2c-1-1.2-1.7-2.8-1.7-4.5C1.5,7.5,4.8,4.4,8.6,4.4 M8.6,3.4
		c-4.4,0-8,3.6-8,8c0,1.9,0.7,3.8,1.9,5.2l0.3,0.3h0.5h10.6h0.5l0.3-0.3c1.2-1.4,1.9-3.3,1.9-5.2C16.5,7,12.9,3.4,8.6,3.4L8.6,3.4z"
		/>
</g>
<polygon class="st0" points="9.7,14.2 8.6,14.8 6.6,10 6.6,10 "/>
<polygon points="1.8,1.9 3.4,0.9 3.4,2.8 3.4,4.7 1.8,3.7 0.2,2.8 "/>
</svg>
